<?xml version="1.0" standalone="no"?>
<!DOCTYPE svg PUBLIC "-//W3C//DTD SVG 1.1//EN" "http://www.w3.org/Graphics/SVG/1.1/DTD/svg11.dtd" >
<svg xmlns="http://www.w3.org/2000/svg">
<metadata>Generated by IcoMoon</metadata>
<defs>
<font id="icons" horiz-adv-x="1024">
<font-face units-per-em="1024" ascent="960" descent="-64" />
<missing-glyph horiz-adv-x="1024" />
<glyph unicode="&#x20;" horiz-adv-x="512" d="" />
<glyph unicode="&#xe900;" glyph-name="user" horiz-adv-x="1065" d="M532.48 960c-282.839 0-512-229.161-512-512 0-282.837 229.161-512 512-512 282.837 0 512 229.163 512 512 0 282.839-229.163 512-512 512zM532.48 761.806c100.336 0 181.678-81.342 181.678-181.677s-81.342-181.678-181.678-181.678c-100.336 0-181.677 81.342-181.677 181.678s81.342 181.677 181.677 181.677zM532.48 51.614c-121.188 0-229.781 54.915-302.452 140.8 38.813 73.085 114.787 123.458 203.353 123.458 4.956 0 9.912-0.827 14.66-2.273 26.841-8.667 54.915-14.242 84.439-14.242s57.807 5.575 84.439 14.242c4.747 1.446 9.703 2.273 14.66 2.273 88.568 0 164.54-50.373 203.354-123.458-72.671-85.885-181.264-140.8-302.453-140.8z" />
<glyph unicode="&#xe901;" glyph-name="comments" horiz-adv-x="1393" d="M1256.694 150.401c62.857 61.944 100.573 139.657 100.573 224.457 0 182.856-174.858 333.942-402.743 360.914-71.999 131.657-241.144 224.229-438.399 224.229-262.629 0-475.429-163.657-475.429-365.714 0-84.571 37.714-162.285 100.572-224.458-34.972-70.173-85.257-124.572-86.172-125.485-14.4-15.315-18.514-37.716-10.057-57.143 8.228-19.427 27.428-31.998 48.457-31.998 122.286 0 221.029 46.17 286.172 88.682 21.028-4.796 42.741-8.454 64.913-11.198 71.774-131.199 240.23-223.543 437.26-223.543 47.542 0 93.254 5.485 136.684 15.544 65.143-42.287 163.656-88.687 286.171-88.687 21.029 0 40.002 12.571 48.456 31.998 8.229 19.431 4.346 41.832-10.056 57.143-0.913 0.688-51.429 55.087-86.401 125.26zM358.867 361.37l-39.086-25.371c-32.229-20.799-65.143-37.257-98.515-48.914 6.171 10.744 12.343 22.172 18.286 33.829l35.429 71.086-56.686 56.001c-30.857 30.63-67.886 80.687-67.886 146.286 0 138.743 167.543 256 365.715 256s365.715-117.257 365.715-256c0-138.741-167.543-256.001-365.715-256.001-37.716 0-75.428 4.346-112.001 12.8l-45.257 10.285zM1179.668 228.573l-56.459-55.775 35.43-71.082c5.943-11.657 12.112-23.089 18.285-33.829-33.37 11.657-66.286 28.111-98.513 48.914l-39.088 25.371-45.486-10.514c-36.569-8.458-74.285-12.8-111.997-12.8-123.429 0-233.603 45.941-300.118 113.598 231.543 24.687 409.829 176.914 409.829 361.83 0 7.771-0.913 15.314-1.597 22.857 147.198-33.143 257.597-129.829 257.597-242.285 0-65.602-37.028-115.659-67.883-146.285z" />
<glyph unicode="&#xe902;" glyph-name="bell" horiz-adv-x="901" d="M447.971-64c70.64 0 127.939 57.299 127.939 128h-255.878c0-70.701 57.3-128 127.94-128zM878.752 235.422c-38.642 41.517-110.94 103.977-110.94 308.58 0 155.398-108.962 279.798-255.881 310.318v41.68c0 35.34-28.639 64-63.959 64s-63.96-28.66-63.96-64v-41.68c-146.92-30.52-255.88-154.92-255.88-310.318 0-204.603-72.3-267.063-110.94-308.58-12-12.902-17.32-28.32-17.22-43.422 0.22-32.801 25.96-64 64.2-64h767.599c38.24 0 64 31.199 64.201 64 0.098 15.102-5.218 30.54-17.22 43.422z" />
<glyph unicode="&#xe903;" glyph-name="star" horiz-adv-x="1063" d="M995.726 591.286l-280.927 40.956-125.562 254.584c-22.496 45.379-87.682 45.956-110.371 0l-125.56-254.584-280.927-40.956c-50.378-7.307-70.568-69.416-34.034-104.988l203.244-198.049-48.071-279.776c-8.653-50.57 44.61-88.45 89.22-64.8l251.314 132.1 251.317-132.1c44.611-23.457 97.871 14.23 89.218 64.8l-48.069 279.776 203.244 198.049c36.533 35.572 16.345 97.681-34.036 104.988zM727.489 320.551l45.572-266.122-239.009 125.562-239.008-125.562 45.571 266.122-193.438 188.436 267.275 38.841 119.599 242.279 119.603-242.279 267.272-38.841-193.438-188.436z" />
<glyph unicode="&#xe904;" glyph-name="clock" d="M512 960c-282.839 0-512-229.161-512-512 0-282.837 229.161-512 512-512 282.837 0 512 229.163 512 512 0 282.839-229.163 512-512 512zM512 35.099c-228.129 0-412.903 184.771-412.903 412.901 0 228.129 184.774 412.903 412.903 412.903 228.131 0 412.901-184.774 412.901-412.903 0-228.131-184.771-412.901-412.901-412.901zM639.586 250.634l-175.276 127.377c-6.402 4.751-10.117 12.182-10.117 20.025v338.995c0 13.626 11.149 24.774 24.773 24.774h66.068c13.623 0 24.773-11.148 24.773-24.774v-292.542l137.908-100.336c11.149-8.053 13.418-23.536 5.37-34.685l-38.814-53.469c-8.053-10.94-23.536-13.418-34.685-5.366z" />
<glyph unicode="&#xe905;" glyph-name="heart" horiz-adv-x="1188" d="M1047.486 886.141c-132.080 111.056-336.138 94.374-462.504-34.276-126.366 128.651-330.423 145.56-462.501 34.276-171.839-144.646-146.703-380.47-24.222-505.463l400.805-408.347c22.852-23.306 53.469-36.332 85.918-36.332 32.678 0 63.070 12.796 85.922 36.106l400.806 408.343c122.249 124.998 147.845 360.818-24.224 505.693zM993.559 457.687l-400.806-408.347c-5.485-5.485-10.056-5.485-15.536 0l-400.807 408.347c-83.406 85.004-100.316 245.876 16.681 344.363 88.89 74.723 225.996 63.526 311.913-23.994l79.978-81.578 79.978 81.578c86.376 87.976 223.482 98.716 311.914 24.222 116.769-98.488 99.402-260.271 16.683-344.592z" />
<glyph unicode="&#xe906;" glyph-name="arrow" horiz-adv-x="704" d="M54.031 512.969l425 425c29.375 29.375 76.876 29.375 105.938 0l70.628-70.625c29.37-29.375 29.37-76.876 0-105.938l-301.253-301.25 301.253-301.251c29.37-29.376 29.37-76.877 0-105.939l-70.628-70.624c-29.375-29.376-76.876-29.376-105.938 0l-425 425.002c-29.375 28.75-29.375 76.25 0 105.625z" />
<glyph unicode="&#xe907;" glyph-name="search" d="M990.846 108.654l-191.732 191.732c-8.653 8.653-20.382 13.462-32.689 13.462h-31.346c53.075 67.883 84.614 153.269 84.614 246.154 0 220.96-179.039 399.998-400.002 399.998-220.96 0-399.998-179.039-399.998-399.998 0-220.963 179.039-400.002 399.998-400.002 92.885 0 178.271 31.539 246.154 84.614v-31.346c0-12.308 4.809-24.036 13.462-32.689l191.732-191.732c18.078-18.078 47.309-18.078 65.193 0l54.422 54.422c18.078 18.078 18.078 47.309 0.193 65.386zM419.69 313.848c-135.96 0-246.152 109.997-246.152 246.154 0 135.96 110 246.152 246.152 246.152 135.964 0 246.154-110 246.154-246.152 0-135.964-109.997-246.154-246.154-246.154z" />
<glyph unicode="&#xe908;" glyph-name="logout" horiz-adv-x="1393" d="M1345.593 402.702l-447.926-447.926c-39.993-39.993-109.314-11.997-109.314 45.326v255.959h-362.607c-35.461 0-63.99 28.529-63.99 63.988v255.958c0 35.461 28.529 63.989 63.99 63.989h362.607v255.958c0 57.057 69.054 85.319 109.314 45.326l447.926-447.925c24.797-25.063 24.797-65.589 0-90.653zM532.394-31.891v106.648c0 17.596-14.397 31.994-31.994 31.994h-223.963c-47.192 0-85.319 38.13-85.319 85.32v511.916c0 47.192 38.127 85.319 85.319 85.319h223.963c17.596 0 31.994 14.398 31.994 31.995v106.649c0 17.597-14.397 31.995-31.994 31.995h-223.963c-141.31 0-255.957-114.648-255.957-255.958v-511.916c0-141.308 114.647-255.955 255.957-255.955h223.963c17.596 0 31.994 14.397 31.994 31.994z" />
<glyph unicode="&#xe909;" glyph-name="sun" horiz-adv-x="1065" d="M532.48 640c-105.8 0-192-86.2-192-192s86.2-192 192-192c105.8 0 192 86.2 192 192s-86.2 192-192 192zM1025.278 478.999l-189.399 94.602 67.002 200.8c8.999 27.2-16.802 53-43.803 43.8l-200.798-67-94.802 189.6c-12.8 25.6-49.197 25.6-61.997 0l-94.602-189.4-201 67c-27.2 9-53-16.8-43.8-43.8l67-200.8-189.4-94.802c-25.6-12.8-25.6-49.197 0-61.997l189.4-94.601-67-200.999c-9-27.202 16.8-53.002 43.8-43.803l200.8 67.002 94.601-189.399c12.8-25.6 49.201-25.6 62.001 0l94.597 189.399 200.802-67.002c27.197-8.999 52.998 16.802 43.799 43.803l-66.998 200.798 189.399 94.601c25.997 13.001 25.997 49.398 0.397 62.198zM713.478 267.002c-99.799-99.803-262.197-99.803-361.998 0-99.8 99.799-99.8 262.197 0 361.998 99.801 99.8 262.199 99.8 361.998 0 99.803-99.801 99.803-262.199 0-361.998z" />
<glyph unicode="&#xe90a;" glyph-name="moon" horiz-adv-x="942" d="M532.48-64c157.925 0 302.158 71.852 397.713 189.583 14.135 17.416-1.278 42.861-23.122 38.699-248.406-47.305-476.525 143.155-476.525 393.909 0 144.444 77.324 277.27 202.994 348.788 19.374 11.024 14.5 40.394-7.512 44.46-30.855 5.69-62.169 8.555-93.549 8.56-282.618 0-512-229.022-512-512 0-282.62 229.022-512 512-512z" />
<glyph unicode="&#xe90b;" glyph-name="success" horiz-adv-x="1393" d="M466.395-43.889l-446.286 446.284c-26.812 26.812-26.812 70.287 0 97.1l97.096 97.1c26.812 26.815 70.287 26.815 97.099 0l300.64-300.638 643.932 643.935c26.812 26.812 70.287 26.812 97.1 0l97.096-97.099c26.812-26.812 26.812-70.284 0-97.099l-789.578-789.586c-26.817-26.812-70.287-26.812-97.1 0.004z" />
<glyph unicode="&#xe90c;" glyph-name="error" horiz-adv-x="1065" d="M726.573 448l291.115 291.113c35.721 35.724 35.721 93.644 0 129.397l-64.7 64.698c-35.721 35.724-93.643 35.724-129.397 0l-291.111-291.113-291.113 291.113c-35.724 35.724-93.644 35.724-129.397 0l-64.698-64.698c-35.724-35.724-35.724-93.644 0-129.397l291.113-291.113-291.113-291.111c-35.724-35.725-35.724-93.647 0-129.397l64.698-64.7c35.724-35.721 93.673-35.721 129.397 0l291.113 291.115 291.111-291.115c35.725-35.721 93.676-35.721 129.397 0l64.7 64.7c35.721 35.721 35.721 93.643 0 129.397l-291.115 291.111z" />
<glyph unicode="&#xe90d;" glyph-name="play" horiz-adv-x="901" d="M848.802 530.665l-704.002 416.199c-57.2 33.8-144.8 1-144.8-82.6v-832.201c0-74.998 81.4-120.201 144.8-82.6l704.002 416.002c62.8 36.999 62.996 128.197 0 165.2z" />
<glyph unicode="&#xe90e;" glyph-name="eye" horiz-adv-x="1556" d="M768.020 746.667c-28.266-0.442-56.32-4.932-83.309-13.333 12.485-21.955 19.132-46.744 19.309-72 0-19.61-3.867-39.029-11.37-57.147s-18.502-34.58-32.371-48.447c-13.865-13.867-30.327-24.868-48.447-32.372-18.117-7.504-37.536-11.366-57.147-11.366-25.256 0.176-50.045 6.824-71.999 19.309-17.322-60.076-15.303-124.080 5.771-182.94 21.074-58.864 60.133-109.605 111.649-145.035 51.511-35.43 112.865-53.756 175.374-52.38 62.505 1.376 122.995 22.385 172.9 60.051 49.902 37.667 86.688 90.075 105.148 149.811s17.658 123.765-2.29 183.017c-19.952 59.252-58.040 110.726-108.872 147.13s-111.825 55.891-174.346 55.703zM1526.739 486.932c-144.613 282.161-430.907 473.068-758.718 473.068-327.815 0-614.189-191.040-758.722-473.092-6.1-12.067-9.279-25.399-9.279-38.92s3.178-26.853 9.279-38.92c144.613-282.161 430.907-473.068 758.722-473.068 327.811 0 614.183 191.042 758.718 473.092 6.099 12.067 9.277 25.399 9.277 38.92s-3.178 26.853-9.277 38.92zM768.020 64c-263.070 0-504.242 146.665-634.482 384 130.24 237.333 371.388 384 634.482 384 263.090 0 504.238-146.667 634.479-384-130.216-237.335-371.388-384-634.479-384z" />
<glyph unicode="&#xe90f;" glyph-name="triangle" horiz-adv-x="878" d="M6.429 448l822.858 475.077v-950.154l-822.858 475.077z" />
<glyph unicode="&#xe910;" glyph-name="lock" horiz-adv-x="901" d="M805.118 512h-47.997v144c0 167.6-136.401 304-304.001 304s-304-136.4-304-304v-144h-48c-53 0-96-43-96-95.998v-384c0-53.002 43-96.002 96-96.002h703.998c53.002 0 96.002 43 96.002 96.002v384c0 52.998-43 95.998-96.002 95.998zM597.119 512h-287.999v144c0 79.4 64.6 144 144 144s143.999-64.6 143.999-144v-144z" />
<glyph unicode="&#xe911;" glyph-name="unlock" horiz-adv-x="1188" d="M882.84 959.998c-168.002-0.6-303.002-139-303.002-306.999v-140.999h-447.998c-53 0-96-43-96-96.002v-384c0-52.998 43-95.998 96-95.998h703.998c53.002 0 96.002 43 96.002 95.998v384c0 53.002-43 96.002-96.002 96.002h-95.998v142.199c0 79.2 63.398 145 142.598 145.8 79.999 0.8 145.4-64.2 145.4-144v-160.002c0-26.599 21.402-47.997 48.001-47.997h64c26.599 0 47.997 21.398 47.997 47.997v160.002c0 168-136.999 304.599-304.996 303.999z" />
<glyph unicode="&#xe912;" glyph-name="star-solid" horiz-adv-x="1152" d="M518.6 924.4l-130.6-264.8-292.2-42.6c-52.4-7.6-73.4-72.2-35.4-109.2l211.4-206-50-291c-9-52.6 46.4-92 92.8-67.4l261.4 137.4 261.4-137.4c46.4-24.4 101.8 14.8 92.8 67.4l-50 291 211.4 206c38 37 17 101.6-35.4 109.2l-292.2 42.6-130.6 264.8c-23.4 47.2-91.2 47.8-114.8 0z" />
<glyph unicode="&#xe913;" glyph-name="equals" horiz-adv-x="896" d="M832 352h-768c-35.34 0-64-28.66-64-64v-64c0-35.34 28.66-64 64-64h768c35.34 0 64 28.66 64 64v64c0 35.34-28.66 64-64 64zM832 736h-768c-35.34 0-64-28.66-64-64v-64c0-35.34 28.66-64 64-64h768c35.34 0 64 28.66 64 64v64c0 35.34-28.66 64-64 64z" />
</font>
</defs>
</svg>
